<?xml version="1.0" encoding="utf-8"?>
<!-- Generator: Adobe Illustrator 15.1.0, SVG Export Plug-In . SVG Version: 6.00 Build 0)  -->
<!DOCTYPE svg PUBLIC "-//W3C//DTD SVG 1.1//EN" "http://www.w3.org/Graphics/SVG/1.1/DTD/svg11.dtd">
<svg version="1.1" id="Livello_1" xmlns="http://www.w3.org/2000/svg" xmlns:xlink="http://www.w3.org/1999/xlink" x="0px" y="0px"
	 width="327.027px" height="209.459px" viewBox="0 0 327.027 209.459" enable-background="new 0 0 327.027 209.459"
	 xml:space="preserve">
<g>
	<g id="mappa_1_">
		<g>
			<path display="none" opacity="0.1" fill="#FFFFFF" d="M215.871,182.538c-36.793-0.823-73.259,1.832-109.399,1.436
				c5.488-26.787,11.338-53.495,17.548-80.12c22.606-2.57,45.538-7.144,68.796-9.616
				C200.139,123.585,207.824,153.018,215.871,182.538z"/>
			<g>
				<path fill="#E1E1E1" stroke="#FFFFFF" stroke-width="1.8188" stroke-miterlimit="10" d="M116.648,112.646
					c-17.779,1.424-35.377,1.513-52.796-1.424c-5.717,7.645-11.394,15.309-17.031,22.992c20.755,4.51,41.69,5.436,62.805,4.794
					C111.927,130.211,114.268,121.423,116.648,112.646z"/>
				<path fill="#E1E1E1" stroke="#FFFFFF" stroke-width="1.8188" stroke-miterlimit="10" d="M24.573,164.94
					c12.594,3.277,25.233,5.478,37.918,6.904c3.102-6.725,6.229-13.441,9.382-20.149c-11.346-0.996-22.647-2.689-33.904-5.35
					C33.478,152.531,29.012,158.729,24.573,164.94z"/>
				<path fill="#E1E1E1" stroke="#FFFFFF" stroke-width="1.8188" stroke-miterlimit="10" d="M194.221,94.239
					c-17.524,1.789-34.865,4.822-52.021,7.336c-1.127,11.901-2.186,23.817-3.176,35.746c21.583-1.665,43.351-3.958,65.304-4.665
					C200.891,119.833,197.522,107.028,194.221,94.239z"/>
				<path fill="#E1E1E1" stroke="#FFFFFF" stroke-width="1.8188" stroke-miterlimit="10" d="M232.454,132.792
					c13.729,0.658,27.527,2.302,41.398,5.482c-6.169-11.097-12.298-22.174-18.388-33.23c-11.77-2.091-23.468-2.885-35.096-2.851
					C224.357,112.38,228.385,122.58,232.454,132.792z"/>
				<path fill="#E1E1E1" stroke="#FFFFFF" stroke-width="1.8188" stroke-miterlimit="10" d="M94.126,179.461
					c20.856,0.636,41.826-0.04,62.909-0.727c-0.26-9.402-0.48-18.797-0.659-28.184c-18.402,1.186-36.691,2.347-54.866,2.35
					C99.008,161.745,96.546,170.598,94.126,179.461z"/>
				<path fill="#E1E1E1" stroke="#FFFFFF" stroke-width="1.8188" stroke-miterlimit="10" d="M192.702,167.439
					c15.86-0.341,31.791-0.233,47.791,0.939c1.392,3.639,2.788,7.279,4.189,10.921c11.59,0.978,23.213,2.491,34.869,4.756
					c-1.92-3.839-3.835-7.675-5.744-11.509c-0.511-1.027-1.021-2.054-1.531-3.081c-2.951-5.938-5.891-11.869-8.817-17.797
					c-24.943-3.985-49.687-4.072-74.232-3.006C190.368,154.917,191.526,161.176,192.702,167.439z"/>
				<g>
					<path fill="#C9C9C9" d="M192.789,92.871c-23.773,2.581-47.2,7.392-70.28,9.979c-19.738,2.219-39.222,2.814-58.452-0.846
						c-0.211,0.254-0.421,0.508-0.632,0.761c-0.008-0.001-0.017-0.002-0.025-0.004c-18.428,22.245-36.497,44.681-54.208,67.3
						c0.014,0.004,0.029,0.009,0.043,0.014c-0.01,0.011-0.02,0.021-0.03,0.032c31.252,9.771,62.758,12.735,94.519,13.205
						c37.136,0.556,74.618-2.309,112.447-1.455c32.522,0.741,65.303,4.235,98.338,15.171c-0.01-0.018-0.02-0.034-0.029-0.052
						c-20.009-34.077-39.659-67.953-58.951-101.634c-0.219-0.384-0.438-0.768-0.656-1.151
						C233.921,90.104,213.227,90.66,192.789,92.871z M142.201,101.575c17.156-2.514,34.496-5.547,52.021-7.336
						c3.301,12.789,6.67,25.595,10.107,38.417c-21.953,0.707-43.721,3-65.304,4.665
						C140.015,125.392,141.074,113.476,142.201,101.575z M63.852,111.222c17.419,2.937,35.018,2.848,52.796,1.424
						c-2.38,8.777-4.721,17.565-7.022,26.362c-21.115,0.642-42.05-0.284-62.805-4.794C52.458,126.531,58.135,118.867,63.852,111.222
						z M62.491,171.844c-12.685-1.427-25.324-3.627-37.918-6.904c4.439-6.211,8.905-12.409,13.396-18.595
						c11.256,2.66,22.558,4.354,33.904,5.35C68.719,158.403,65.592,165.12,62.491,171.844z M157.035,178.735
						c-21.083,0.687-42.053,1.362-62.909,0.727c2.42-8.863,4.882-17.717,7.384-26.561c18.175-0.003,36.463-1.164,54.866-2.35
						C156.555,159.938,156.774,169.333,157.035,178.735z M272.276,169.465c0.51,1.027,1.021,2.054,1.531,3.081
						c1.909,3.834,3.824,7.67,5.744,11.509c-11.656-2.266-23.279-3.778-34.869-4.756c-1.401-3.642-2.798-7.282-4.189-10.921
						c-16-1.173-31.931-1.28-47.791-0.939c-1.176-6.263-2.334-12.521-3.476-18.776c24.546-1.066,49.289-0.979,74.232,3.006
						C266.385,157.596,269.325,163.528,272.276,169.465z M273.852,138.275c-13.871-3.181-27.67-4.824-41.398-5.482
						c-4.068-10.213-8.097-20.412-12.085-30.599c11.628-0.034,23.326,0.76,35.096,2.851
						C261.554,116.101,267.683,127.178,273.852,138.275z"/>
					<path fill="none" stroke="#FFFFFF" stroke-width="1.4083" stroke-miterlimit="10" d="M192.789,92.871
						c-23.773,2.581-47.2,7.392-70.28,9.979c-19.738,2.219-39.222,2.814-58.452-0.846c-0.211,0.254-0.421,0.508-0.632,0.761
						c-0.008-0.001-0.017-0.002-0.025-0.004c-18.428,22.245-36.497,44.681-54.208,67.3c0.014,0.004,0.029,0.009,0.043,0.014
						c-0.01,0.011-0.02,0.021-0.03,0.032c31.252,9.771,62.758,12.735,94.519,13.205c37.136,0.556,74.618-2.309,112.447-1.455
						c32.522,0.741,65.303,4.235,98.338,15.171c-0.01-0.018-0.02-0.034-0.029-0.052c-20.009-34.077-39.659-67.953-58.951-101.634
						c-0.219-0.384-0.438-0.768-0.656-1.151C233.921,90.104,213.227,90.66,192.789,92.871z M142.201,101.575
						c17.156-2.514,34.496-5.547,52.021-7.336c3.301,12.789,6.67,25.595,10.107,38.417c-21.953,0.707-43.721,3-65.304,4.665
						C140.015,125.392,141.074,113.476,142.201,101.575z M63.852,111.222c17.419,2.937,35.018,2.848,52.796,1.424
						c-2.38,8.777-4.721,17.565-7.022,26.362c-21.115,0.642-42.05-0.284-62.805-4.794C52.458,126.531,58.135,118.867,63.852,111.222
						z M62.491,171.844c-12.685-1.427-25.324-3.627-37.918-6.904c4.439-6.211,8.905-12.409,13.396-18.595
						c11.256,2.66,22.558,4.354,33.904,5.35C68.719,158.403,65.592,165.12,62.491,171.844z M157.035,178.735
						c-21.083,0.687-42.053,1.362-62.909,0.727c2.42-8.863,4.882-17.717,7.384-26.561c18.175-0.003,36.463-1.164,54.866-2.35
						C156.555,159.938,156.774,169.333,157.035,178.735z M272.276,169.465c0.51,1.027,1.021,2.054,1.531,3.081
						c1.909,3.834,3.824,7.67,5.744,11.509c-11.656-2.266-23.279-3.778-34.869-4.756c-1.401-3.642-2.798-7.282-4.189-10.921
						c-16-1.173-31.931-1.28-47.791-0.939c-1.176-6.263-2.334-12.521-3.476-18.776c24.546-1.066,49.289-0.979,74.232,3.006
						C266.385,157.596,269.325,163.528,272.276,169.465z M273.852,138.275c-13.871-3.181-27.67-4.824-41.398-5.482
						c-4.068-10.213-8.097-20.412-12.085-30.599c11.628-0.034,23.326,0.76,35.096,2.851
						C261.554,116.101,267.683,127.178,273.852,138.275z"/>
				</g>
			</g>
		</g>
	</g>
	<g>
		<g>
			<g>
				<g>
					<g>
						<defs>
							<path id="SVGID_1_" d="M212.064,27.812c-0.912,19.55-1.822,39.101-2.731,58.651c-2.326-1.556-4.698-3.125-7.117-4.712
								c0.676-19.549,1.354-39.098,2.031-58.646C206.901,24.687,209.507,26.256,212.064,27.812z"/>
						</defs>
						<clipPath id="SVGID_2_">
							<use xlink:href="#SVGID_1_"  overflow="visible"/>
						</clipPath>
					</g>
					<g>
						<defs>
							<path id="SVGID_3_" d="M204.247,23.105c-0.678,19.549-1.355,39.098-2.031,58.646c-7.732,0.734-15.438,1.468-23.122,2.202
								c-0.06-19.55-0.118-39.1-0.176-58.65C187.339,24.571,195.778,23.837,204.247,23.105z"/>
						</defs>
						<clipPath id="SVGID_4_">
							<use xlink:href="#SVGID_3_"  overflow="visible"/>
						</clipPath>
					</g>
					<g>
						<defs>
							<path id="SVGID_5_" d="M178.917,25.303c0.058,19.55,0.116,39.101,0.176,58.65c-2.253-1.02-4.521-2.039-6.792-3.061
								c-0.275-19.549-0.548-39.099-0.82-58.648C173.969,23.264,176.449,24.283,178.917,25.303z"/>
						</defs>
						<clipPath id="SVGID_6_">
							<use xlink:href="#SVGID_5_"  overflow="visible"/>
						</clipPath>
					</g>
					<g>
						<defs>
							<path id="SVGID_7_" d="M171.481,22.245c0.272,19.549,0.545,39.099,0.82,58.648c-6.422,0.846-12.818,1.695-19.193,2.544
								c-0.887-19.55-1.773-39.1-2.658-58.65C157.436,23.938,164.446,23.091,171.481,22.245z"/>
						</defs>
						<clipPath id="SVGID_8_">
							<use xlink:href="#SVGID_7_"  overflow="visible"/>
						</clipPath>
					</g>
				</g>
			</g>
			<g>
				<g enable-background="new    ">
					<g enable-background="new    ">
						<defs>
							<path id="SVGID_9_" enable-background="new    " d="M212.064,27.812c-0.912,19.55-1.822,39.101-2.731,58.651
								c-2.326-1.556-4.698-3.125-7.117-4.712c0.676-19.549,1.354-39.098,2.031-58.646
								C206.901,24.687,209.507,26.256,212.064,27.812z"/>
						</defs>
						
							<linearGradient id="SVGID_10_" gradientUnits="userSpaceOnUse" x1="260.2993" y1="84.436" x2="260.8036" y2="55.9222" gradientTransform="matrix(1 0 0 1 -53.6836 0)">
							<stop  offset="0" style="stop-color:#C0C0C0;stop-opacity:0"/>
							<stop  offset="1" style="stop-color:#BFBFBF"/>
						</linearGradient>
						<use xlink:href="#SVGID_9_"  overflow="visible" fill="url(#SVGID_10_)"/>
						<clipPath id="SVGID_11_">
							<use xlink:href="#SVGID_9_"  overflow="visible"/>
						</clipPath>
						<g clip-path="url(#SVGID_11_)" enable-background="new    ">
							
								<linearGradient id="SVGID_12_" gradientUnits="userSpaceOnUse" x1="260.2993" y1="84.436" x2="260.8036" y2="55.9222" gradientTransform="matrix(1 0 0 1 -53.6836 0)">
								<stop  offset="0" style="stop-color:#C0C0C0;stop-opacity:0"/>
								<stop  offset="1" style="stop-color:#BFBFBF"/>
							</linearGradient>
							<path fill="url(#SVGID_12_)" d="M212.064,27.812c-0.912,19.55-1.822,39.101-2.731,58.651
								c-2.326-1.556-4.698-3.125-7.117-4.712c0.676-19.549,1.354-39.098,2.031-58.646
								C206.901,24.687,209.507,26.256,212.064,27.812"/>
						</g>
					</g>
					<g enable-background="new    ">
						<defs>
							<path id="SVGID_13_" enable-background="new    " d="M204.247,23.105c-0.678,19.549-1.355,39.098-2.031,58.646
								c-7.732,0.734-15.438,1.468-23.122,2.202c-0.06-19.55-0.118-39.1-0.176-58.65C187.339,24.571,195.778,23.837,204.247,23.105z
								"/>
						</defs>
						
							<linearGradient id="SVGID_14_" gradientUnits="userSpaceOnUse" x1="246.1206" y1="83.188" x2="245.3623" y2="53.8806" gradientTransform="matrix(1 0 0 1 -53.6836 0)">
							<stop  offset="0" style="stop-color:#C0C0C0;stop-opacity:0"/>
							<stop  offset="1" style="stop-color:#BFBFBF"/>
						</linearGradient>
						<use xlink:href="#SVGID_13_"  overflow="visible" fill="url(#SVGID_14_)"/>
						<clipPath id="SVGID_15_">
							<use xlink:href="#SVGID_13_"  overflow="visible"/>
						</clipPath>
						<g clip-path="url(#SVGID_15_)" enable-background="new    ">
							
								<linearGradient id="SVGID_16_" gradientUnits="userSpaceOnUse" x1="246.1206" y1="83.188" x2="245.3623" y2="53.8806" gradientTransform="matrix(1 0 0 1 -53.6836 0)">
								<stop  offset="0" style="stop-color:#C0C0C0;stop-opacity:0"/>
								<stop  offset="1" style="stop-color:#BFBFBF"/>
							</linearGradient>
							<path fill="url(#SVGID_16_)" d="M204.247,23.105c-0.678,19.549-1.355,39.098-2.031,58.646
								c-7.732,0.734-15.438,1.468-23.122,2.202c-0.06-19.55-0.118-39.1-0.176-58.65C187.339,24.571,195.778,23.837,204.247,23.105"
								/>
						</g>
					</g>
					<g enable-background="new    ">
						<defs>
							<path id="SVGID_17_" enable-background="new    " d="M178.917,25.303c0.058,19.55,0.116,39.101,0.176,58.65
								c-2.253-1.02-4.521-2.039-6.792-3.061c-0.275-19.549-0.548-39.099-0.82-58.648C173.969,23.264,176.449,24.283,178.917,25.303
								z"/>
						</defs>
						
							<linearGradient id="SVGID_18_" gradientUnits="userSpaceOnUse" x1="228.1177" y1="82.3833" x2="228.8739" y2="56.4094" gradientTransform="matrix(1 0 0 1 -53.6836 0)">
							<stop  offset="0" style="stop-color:#C0C0C0;stop-opacity:0"/>
							<stop  offset="1" style="stop-color:#BFBFBF"/>
						</linearGradient>
						<use xlink:href="#SVGID_17_"  overflow="visible" fill="url(#SVGID_18_)"/>
						<clipPath id="SVGID_19_">
							<use xlink:href="#SVGID_17_"  overflow="visible"/>
						</clipPath>
						<g clip-path="url(#SVGID_19_)" enable-background="new    ">
							
								<linearGradient id="SVGID_20_" gradientUnits="userSpaceOnUse" x1="228.1177" y1="82.3833" x2="228.8739" y2="56.4094" gradientTransform="matrix(1 0 0 1 -53.6836 0)">
								<stop  offset="0" style="stop-color:#C0C0C0;stop-opacity:0"/>
								<stop  offset="1" style="stop-color:#BFBFBF"/>
							</linearGradient>
							<path fill="url(#SVGID_20_)" d="M178.917,25.303c0.058,19.55,0.116,39.101,0.176,58.65c-2.253-1.02-4.521-2.039-6.792-3.061
								c-0.275-19.549-0.548-39.099-0.82-58.648C173.969,23.264,176.449,24.283,178.917,25.303"/>
						</g>
					</g>
					<g enable-background="new    ">
						<defs>
							<path id="SVGID_21_" enable-background="new    " d="M171.481,22.245c0.272,19.549,0.545,39.099,0.82,58.648
								c-6.422,0.846-12.818,1.695-19.193,2.544c-0.887-19.55-1.773-39.1-2.658-58.65C157.436,23.938,164.446,23.091,171.481,22.245
								z"/>
						</defs>
						
							<linearGradient id="SVGID_22_" gradientUnits="userSpaceOnUse" x1="215.3198" y1="82.1597" x2="215.0674" y2="53.6501" gradientTransform="matrix(1 0 0 1 -53.6836 0)">
							<stop  offset="0" style="stop-color:#C0C0C0;stop-opacity:0"/>
							<stop  offset="1" style="stop-color:#BFBFBF"/>
						</linearGradient>
						<use xlink:href="#SVGID_21_"  overflow="visible" fill="url(#SVGID_22_)"/>
						<clipPath id="SVGID_23_">
							<use xlink:href="#SVGID_21_"  overflow="visible"/>
						</clipPath>
						<g clip-path="url(#SVGID_23_)" enable-background="new    ">
							
								<linearGradient id="SVGID_24_" gradientUnits="userSpaceOnUse" x1="215.3198" y1="82.1597" x2="215.0674" y2="53.6501" gradientTransform="matrix(1 0 0 1 -53.6836 0)">
								<stop  offset="0" style="stop-color:#C0C0C0;stop-opacity:0"/>
								<stop  offset="1" style="stop-color:#BFBFBF"/>
							</linearGradient>
							<path fill="url(#SVGID_24_)" d="M171.481,22.245c0.272,19.549,0.545,39.099,0.82,58.648
								c-6.422,0.846-12.818,1.695-19.193,2.544c-0.887-19.55-1.773-39.1-2.658-58.65C157.436,23.938,164.446,23.091,171.481,22.245
								"/>
						</g>
					</g>
				</g>
			</g>
			<g>
				<g>
					<g>
						<defs>
							<path id="SVGID_25_" d="M212.064,27.812c-0.912,19.55-1.822,39.101-2.731,58.651c-2.326-1.556-4.698-3.125-7.117-4.712
								c0.676-19.549,1.354-39.098,2.031-58.646C206.901,24.687,209.507,26.256,212.064,27.812z"/>
						</defs>
						<clipPath id="SVGID_26_">
							<use xlink:href="#SVGID_25_"  overflow="visible"/>
						</clipPath>
					</g>
					<g>
						<defs>
							<path id="SVGID_27_" d="M204.247,23.105c-0.678,19.549-1.355,39.098-2.031,58.646c-7.732,0.734-15.438,1.468-23.122,2.202
								c-0.06-19.55-0.118-39.1-0.176-58.65C187.339,24.571,195.778,23.837,204.247,23.105z"/>
						</defs>
						<clipPath id="SVGID_28_">
							<use xlink:href="#SVGID_27_"  overflow="visible"/>
						</clipPath>
					</g>
					<g>
						<defs>
							<path id="SVGID_29_" d="M178.917,25.303c0.058,19.55,0.116,39.101,0.176,58.65c-2.253-1.02-4.521-2.039-6.792-3.061
								c-0.275-19.549-0.548-39.099-0.82-58.648C173.969,23.264,176.449,24.283,178.917,25.303z"/>
						</defs>
						<clipPath id="SVGID_30_">
							<use xlink:href="#SVGID_29_"  overflow="visible"/>
						</clipPath>
					</g>
					<g>
						<defs>
							<path id="SVGID_31_" d="M171.481,22.245c0.272,19.549,0.545,39.099,0.82,58.648c-6.422,0.846-12.818,1.695-19.193,2.544
								c-0.887-19.55-1.773-39.1-2.658-58.65C157.436,23.938,164.446,23.091,171.481,22.245z"/>
						</defs>
						<clipPath id="SVGID_32_">
							<use xlink:href="#SVGID_31_"  overflow="visible"/>
						</clipPath>
					</g>
				</g>
			</g>
		</g>
		<g>
			<g>
				<g enable-background="new    ">
					<g>
						
							<linearGradient id="SVGID_33_" gradientUnits="userSpaceOnUse" x1="66.7178" y1="83.354" x2="70.7545" y2="53.6486" gradientTransform="matrix(-1 0 0 1 342.54 0)">
							<stop  offset="0" style="stop-color:#C0C0C0;stop-opacity:0"/>
							<stop  offset="1" style="stop-color:#BFBFBF"/>
						</linearGradient>
						<path fill="url(#SVGID_33_)" d="M262.125,20.896c0.54,21.525,1.07,43.049,1.592,64.575c5.125-1.569,10.285-3.139,15.482-4.708
							c-0.027-21.524-0.064-43.05-0.11-64.575C273.399,17.758,267.744,19.327,262.125,20.896z"/>
					</g>
					<g>
						
							<linearGradient id="SVGID_34_" gradientUnits="userSpaceOnUse" x1="60.6353" y1="83.3745" x2="58.3582" y2="56.8992" gradientTransform="matrix(-1 0 0 1 342.54 0)">
							<stop  offset="0" style="stop-color:#C0C0C0;stop-opacity:0"/>
							<stop  offset="1" style="stop-color:#BFBFBF"/>
						</linearGradient>
						<path fill="url(#SVGID_34_)" d="M279.089,16.188c0.046,21.525,0.083,43.05,0.11,64.575c3.699,2.036,7.366,4.072,10.999,6.108
							c0.328-21.524,0.646-43.049,0.954-64.574C287.165,20.261,283.144,18.225,279.089,16.188z"/>
					</g>
				</g>
			</g>
		</g>
		<g>
			<g>
				<g enable-background="new    ">
					<g>
						
							<linearGradient id="SVGID_35_" gradientUnits="userSpaceOnUse" x1="263.4995" y1="86.2915" x2="267.5362" y2="56.5863" gradientTransform="matrix(-1 0 0 1 342.54 0)">
							<stop  offset="0" style="stop-color:#C0C0C0;stop-opacity:0"/>
							<stop  offset="1" style="stop-color:#BFBFBF"/>
						</linearGradient>
						<path fill="url(#SVGID_35_)" d="M65.344,23.834c0.54,21.525,1.071,43.049,1.592,64.575c5.125-1.569,10.285-3.138,15.481-4.707
							c-0.027-21.525-0.063-43.05-0.109-64.575C76.617,20.696,70.962,22.265,65.344,23.834z"/>
					</g>
					<g>
						
							<linearGradient id="SVGID_36_" gradientUnits="userSpaceOnUse" x1="257.4165" y1="86.313" x2="255.1395" y2="59.8381" gradientTransform="matrix(-1 0 0 1 342.54 0)">
							<stop  offset="0" style="stop-color:#C0C0C0;stop-opacity:0"/>
							<stop  offset="1" style="stop-color:#BFBFBF"/>
						</linearGradient>
						<path fill="url(#SVGID_36_)" d="M82.308,19.127c0.046,21.525,0.083,43.049,0.109,64.575c3.7,2.036,7.367,4.072,11.001,6.108
							c0.327-21.524,0.645-43.049,0.953-64.574C90.383,23.2,86.362,21.163,82.308,19.127z"/>
					</g>
				</g>
			</g>
		</g>
		<g>
			<g>
				<g enable-background="new    ">
					<g>
						
							<linearGradient id="SVGID_37_" gradientUnits="userSpaceOnUse" x1="104.0464" y1="79.064" x2="110.4354" y2="46.6908" gradientTransform="matrix(-1 0 0 1 342.54 0)">
							<stop  offset="0" style="stop-color:#C0C0C0;stop-opacity:0"/>
							<stop  offset="1" style="stop-color:#C1C1C1"/>
						</linearGradient>
						<path fill="url(#SVGID_37_)" d="M225.35,20.541c0.571,21.067,1.13,42.135,1.675,63.203c3.858-2.225,7.752-4.45,11.681-6.675
							C238.49,56,238.26,34.933,238.018,13.865C233.76,16.09,229.538,18.315,225.35,20.541z"/>
					</g>
					<g>
						
							<linearGradient id="SVGID_38_" gradientUnits="userSpaceOnUse" x1="107.0107" y1="80.0171" x2="95.4854" y2="51.3137" gradientTransform="matrix(-1 0 0 1 342.54 0)">
							<stop  offset="0" style="stop-color:#C0C0C0;stop-opacity:0"/>
							<stop  offset="1" style="stop-color:#BFBFBF"/>
						</linearGradient>
						<path fill="url(#SVGID_38_)" d="M238.018,13.865c0.242,21.068,0.472,42.136,0.688,63.204
							c5.548,4.776,10.99,9.553,16.326,14.329c0.254-21.067,0.494-42.134,0.723-63.201C249.948,23.42,244.036,18.642,238.018,13.865
							z"/>
					</g>
				</g>
			</g>
		</g>
		<g>
			<g>
				<g enable-background="new    ">
					<g>
						
							<linearGradient id="SVGID_39_" gradientUnits="userSpaceOnUse" x1="225.479" y1="88.6284" x2="231.8678" y2="56.2562" gradientTransform="matrix(-1 0 0 1 342.54 0)">
							<stop  offset="0" style="stop-color:#C0C0C0;stop-opacity:0"/>
							<stop  offset="1" style="stop-color:#BFBFBF"/>
						</linearGradient>
						<path fill="url(#SVGID_39_)" d="M103.917,30.107c0.572,21.067,1.131,42.133,1.676,63.201
							c3.859-2.224,7.752-4.448,11.681-6.672c-0.216-21.068-0.445-42.137-0.687-63.205C112.33,25.657,108.106,27.882,103.917,30.107
							z"/>
					</g>
					<g>
						
							<linearGradient id="SVGID_40_" gradientUnits="userSpaceOnUse" x1="228.4399" y1="89.5825" x2="216.9148" y2="60.8796" gradientTransform="matrix(-1 0 0 1 342.54 0)">
							<stop  offset="0" style="stop-color:#C0C0C0;stop-opacity:0"/>
							<stop  offset="1" style="stop-color:#C1C1C1"/>
						</linearGradient>
						<path fill="url(#SVGID_40_)" d="M116.588,23.431c0.242,21.068,0.471,42.137,0.687,63.205
							c5.548,4.776,10.991,9.552,16.329,14.328c0.253-21.067,0.493-42.135,0.719-63.202
							C128.517,32.985,122.605,28.208,116.588,23.431z"/>
					</g>
				</g>
			</g>
		</g>
		<g>
			<g>
				<g enable-background="new    ">
					<g>
						
							<linearGradient id="SVGID_41_" gradientUnits="userSpaceOnUse" x1="433.4351" y1="106.0317" x2="439.8256" y2="73.651" gradientTransform="matrix(0.8388 0.0015 0.0015 0.7975 -140.7644 18.3702)">
							<stop  offset="0" style="stop-color:#C0C0C0;stop-opacity:0"/>
							<stop  offset="1" style="stop-color:#C1C1C1"/>
						</linearGradient>
						<path fill="url(#SVGID_41_)" d="M233.909,56.923c-0.453,16.802-0.897,33.604-1.333,50.405
							c-3.238-1.783-6.506-3.566-9.803-5.35c0.158-16.801,0.325-33.603,0.501-50.404C226.848,53.358,230.393,55.141,233.909,56.923z
							"/>
					</g>
					<g>
						
							<linearGradient id="SVGID_42_" gradientUnits="userSpaceOnUse" x1="436.397" y1="106.9614" x2="424.8747" y2="78.2658" gradientTransform="matrix(0.8388 0.0015 0.0015 0.7975 -140.7644 18.3702)">
							<stop  offset="0" style="stop-color:#C0C0C0;stop-opacity:0"/>
							<stop  offset="1" style="stop-color:#BFBFBF"/>
						</linearGradient>
						<path fill="url(#SVGID_42_)" d="M223.274,51.575c-0.176,16.801-0.343,33.603-0.501,50.404
							c-4.648,3.8-9.208,7.599-13.68,11.398c-0.233-16.802-0.459-33.604-0.675-50.405C213.282,59.173,218.234,55.375,223.274,51.575
							z"/>
					</g>
				</g>
			</g>
		</g>
		<g>
			<g>
				<g enable-background="new    ">
					<g>
						
							<linearGradient id="SVGID_43_" gradientUnits="userSpaceOnUse" x1="163.2021" y1="111.0728" x2="166.3134" y2="88.1777" gradientTransform="matrix(-1 0 0 1 342.54 0)">
							<stop  offset="0" style="stop-color:#C0C0C0;stop-opacity:0"/>
							<stop  offset="1" style="stop-color:#BFBFBF"/>
						</linearGradient>
						<path fill="url(#SVGID_43_)" d="M166.654,62.729c0.54,16.738,1.07,33.478,1.59,50.216c5.125-1.221,10.286-2.44,15.483-3.661
							c-0.026-16.739-0.063-33.478-0.108-50.217C177.927,60.288,172.273,61.508,166.654,62.729z"/>
					</g>
					<g>
						
							<linearGradient id="SVGID_44_" gradientUnits="userSpaceOnUse" x1="155.4883" y1="111.2202" x2="153.7244" y2="90.7114" gradientTransform="matrix(-1 0 0 1 342.54 0)">
							<stop  offset="0" style="stop-color:#C0C0C0;stop-opacity:0"/>
							<stop  offset="1" style="stop-color:#BFBFBF"/>
						</linearGradient>
						<path fill="url(#SVGID_44_)" d="M183.619,59.067c0.046,16.739,0.082,33.478,0.108,50.217
							c3.701,1.584,7.368,3.169,11.002,4.753c0.327-16.739,0.644-33.479,0.951-50.219C191.693,62.234,187.672,60.651,183.619,59.067
							z"/>
					</g>
				</g>
			</g>
		</g>
		<g>
			<g>
				<g enable-background="new    ">
					<g>
						
							<linearGradient id="SVGID_45_" gradientUnits="userSpaceOnUse" x1="172.395" y1="76.7524" x2="178.784" y2="44.3796" gradientTransform="matrix(1 0 0 1 -125.543 0)">
							<stop  offset="0" style="stop-color:#C0C0C0;stop-opacity:0"/>
							<stop  offset="1" style="stop-color:#C1C1C1"/>
						</linearGradient>
						<path fill="url(#SVGID_45_)" d="M59.996,18.23c-0.571,21.067-1.13,42.135-1.675,63.202c-3.858-2.226-7.752-4.45-11.68-6.676
							c0.216-21.067,0.445-42.135,0.687-63.203C51.585,13.779,55.808,16.004,59.996,18.23z"/>
					</g>
					<g>
						
							<linearGradient id="SVGID_46_" gradientUnits="userSpaceOnUse" x1="175.3589" y1="77.7056" x2="163.8335" y2="49.0022" gradientTransform="matrix(1 0 0 1 -125.543 0)">
							<stop  offset="0" style="stop-color:#C0C0C0;stop-opacity:0"/>
							<stop  offset="1" style="stop-color:#BFBFBF"/>
						</linearGradient>
						<path fill="url(#SVGID_46_)" d="M47.328,11.554c-0.242,21.067-0.471,42.135-0.687,63.203
							c-5.548,4.777-10.991,9.555-16.329,14.332c-0.253-21.068-0.493-42.136-0.72-63.204C35.398,21.108,41.311,16.331,47.328,11.554
							z"/>
					</g>
				</g>
			</g>
		</g>
		<g>
			<g>
				<g enable-background="new    ">
					<g>
						
							<linearGradient id="SVGID_47_" gradientUnits="userSpaceOnUse" x1="363.3159" y1="106.8159" x2="369.7064" y2="74.4357" gradientTransform="matrix(-0.8388 0.0015 -0.0015 0.7975 357.7615 18.3702)">
							<stop  offset="0" style="stop-color:#C0C0C0;stop-opacity:0"/>
							<stop  offset="1" style="stop-color:#C1C1C1"/>
						</linearGradient>
						<path fill="url(#SVGID_47_)" d="M41.904,57.446c0.453,16.801,0.897,33.603,1.333,50.403c3.238-1.782,6.506-3.565,9.803-5.348
							c-0.158-16.802-0.325-33.604-0.5-50.405C48.965,53.879,45.419,55.663,41.904,57.446z"/>
					</g>
					<g>
						
							<linearGradient id="SVGID_48_" gradientUnits="userSpaceOnUse" x1="366.2778" y1="107.7485" x2="354.7552" y2="79.052" gradientTransform="matrix(-0.8388 0.0015 -0.0015 0.7975 357.7615 18.3702)">
							<stop  offset="0" style="stop-color:#C0C0C0;stop-opacity:0"/>
							<stop  offset="1" style="stop-color:#BFBFBF"/>
						</linearGradient>
						<path fill="url(#SVGID_48_)" d="M52.54,52.096c0.175,16.802,0.342,33.604,0.5,50.405c4.647,3.799,9.207,7.599,13.678,11.397
							c0.235-16.802,0.461-33.604,0.678-50.405C62.532,59.695,57.58,55.895,52.54,52.096z"/>
					</g>
				</g>
			</g>
		</g>
		<g>
			<g>
				<g enable-background="new    ">
					<g>
						
							<linearGradient id="SVGID_49_" gradientUnits="userSpaceOnUse" x1="384.8345" y1="107.9868" x2="392.2083" y2="70.6239" gradientTransform="matrix(-0.9361 -0.002 0.0017 0.7977 496.987 20.5832)">
							<stop  offset="0" style="stop-color:#C0C0C0;stop-opacity:0"/>
							<stop  offset="1" style="stop-color:#C1C1C1"/>
						</linearGradient>
						<path fill="url(#SVGID_49_)" d="M122.62,52.038c0.653,19.4,1.289,38.802,1.908,58.202c4.168-2.036,8.373-4.071,12.616-6.107
							c-0.264-19.402-0.544-38.805-0.841-58.208C131.704,47.962,127.144,50,122.62,52.038z"/>
					</g>
					<g>
						
							<linearGradient id="SVGID_50_" gradientUnits="userSpaceOnUse" x1="388.2612" y1="109.1265" x2="374.9504" y2="75.9765" gradientTransform="matrix(-0.9361 -0.002 0.0017 0.7977 496.987 20.5832)">
							<stop  offset="0" style="stop-color:#C0C0C0;stop-opacity:0"/>
							<stop  offset="1" style="stop-color:#BFBFBF"/>
						</linearGradient>
						<path fill="url(#SVGID_50_)" d="M136.303,45.925c0.297,19.403,0.578,38.805,0.841,58.208
							c6.003,4.416,11.892,8.832,17.666,13.248c0.244-19.402,0.472-38.804,0.683-58.206
							C149.211,54.758,142.814,50.341,136.303,45.925z"/>
					</g>
				</g>
			</g>
		</g>
		<g>
			<g>
				<g enable-background="new    ">
					<g>
						
							<linearGradient id="SVGID_51_" gradientUnits="userSpaceOnUse" x1="260.2417" y1="110.0845" x2="263.633" y2="85.1283" gradientTransform="matrix(-1 0 0 1 342.54 0)">
							<stop  offset="0" style="stop-color:#C0C0C0;stop-opacity:0"/>
							<stop  offset="1" style="stop-color:#BFBFBF"/>
						</linearGradient>
						<path fill="url(#SVGID_51_)" d="M69.307,57.469c0.54,18.188,1.071,36.374,1.592,54.562c5.125-1.326,10.287-2.652,15.484-3.979
							c-0.027-18.188-0.063-36.374-0.109-54.562C80.582,54.817,74.927,56.143,69.307,57.469z"/>
					</g>
					<g>
						
							<linearGradient id="SVGID_52_" gradientUnits="userSpaceOnUse" x1="253.02" y1="110.1938" x2="251.1008" y2="87.8793" gradientTransform="matrix(-1 0 0 1 342.54 0)">
							<stop  offset="0" style="stop-color:#C0C0C0;stop-opacity:0"/>
							<stop  offset="1" style="stop-color:#BFBFBF"/>
						</linearGradient>
						<path fill="url(#SVGID_52_)" d="M86.273,53.491c0.046,18.188,0.083,36.374,0.109,54.562c3.7,1.722,7.367,3.442,11.001,5.164
							c0.327-18.188,0.644-36.376,0.951-54.564C94.348,56.931,90.327,55.211,86.273,53.491z"/>
					</g>
				</g>
			</g>
		</g>
		<g>
			<g>
				<g>
					<g>
						<defs>
							<path id="SVGID_53_" d="M246.344,64.469c0.762,16.325,1.522,32.651,2.281,48.977c1.941-1.3,3.922-2.609,5.942-3.933
								c-0.565-16.325-1.131-32.649-1.697-48.975C250.653,61.86,248.477,63.171,246.344,64.469z"/>
						</defs>
						<clipPath id="SVGID_54_">
							<use xlink:href="#SVGID_53_"  overflow="visible"/>
						</clipPath>
					</g>
					<g>
						<defs>
							<path id="SVGID_55_" d="M252.871,60.539c0.566,16.325,1.132,32.649,1.697,48.975c6.456,0.612,12.892,1.226,19.31,1.837
								c0.049-16.325,0.097-32.65,0.144-48.976C266.992,61.762,259.943,61.15,252.871,60.539z"/>
						</defs>
						<clipPath id="SVGID_56_">
							<use xlink:href="#SVGID_55_"  overflow="visible"/>
						</clipPath>
					</g>
					<g>
						<defs>
							<path id="SVGID_57_" d="M274.021,62.375c-0.047,16.325-0.095,32.65-0.144,48.976c1.882-0.851,3.771-1.704,5.67-2.554
								c0.229-16.325,0.458-32.651,0.686-48.977C278.157,60.67,276.085,61.523,274.021,62.375z"/>
						</defs>
						<clipPath id="SVGID_58_">
							<use xlink:href="#SVGID_57_"  overflow="visible"/>
						</clipPath>
					</g>
					<g>
						<defs>
							<path id="SVGID_59_" d="M280.233,59.82c-0.228,16.325-0.456,32.651-0.686,48.977c5.362,0.706,10.704,1.413,16.026,2.122
								c0.742-16.325,1.482-32.649,2.222-48.975C291.96,61.234,286.108,60.527,280.233,59.82z"/>
						</defs>
						<clipPath id="SVGID_60_">
							<use xlink:href="#SVGID_59_"  overflow="visible"/>
						</clipPath>
					</g>
				</g>
			</g>
			<g>
				<g enable-background="new    ">
					<g enable-background="new    ">
						<defs>
							<path id="SVGID_61_" enable-background="new    " d="M246.344,64.469c0.762,16.325,1.522,32.651,2.281,48.977
								c1.941-1.3,3.922-2.609,5.942-3.933c-0.565-16.325-1.131-32.649-1.697-48.975C250.653,61.86,248.477,63.171,246.344,64.469z"
								/>
						</defs>
						
							<linearGradient id="SVGID_62_" gradientUnits="userSpaceOnUse" x1="91.6465" y1="111.7524" x2="92.0676" y2="87.9422" gradientTransform="matrix(-1 0 0 1 342.54 0)">
							<stop  offset="0" style="stop-color:#C0C0C0;stop-opacity:0"/>
							<stop  offset="1" style="stop-color:#BFBFBF"/>
						</linearGradient>
						<use xlink:href="#SVGID_61_"  overflow="visible" fill="url(#SVGID_62_)"/>
						<clipPath id="SVGID_63_">
							<use xlink:href="#SVGID_61_"  overflow="visible"/>
						</clipPath>
						<g clip-path="url(#SVGID_63_)" enable-background="new    ">
							
								<linearGradient id="SVGID_64_" gradientUnits="userSpaceOnUse" x1="91.6465" y1="111.7524" x2="92.0676" y2="87.9422" gradientTransform="matrix(-1 0 0 1 342.54 0)">
								<stop  offset="0" style="stop-color:#C0C0C0;stop-opacity:0"/>
								<stop  offset="1" style="stop-color:#BFBFBF"/>
							</linearGradient>
							<path fill="url(#SVGID_64_)" d="M246.344,64.469c0.762,16.325,1.522,32.651,2.281,48.977c1.941-1.3,3.922-2.609,5.942-3.933
								c-0.565-16.325-1.131-32.649-1.697-48.975C250.653,61.86,248.477,63.171,246.344,64.469"/>
						</g>
					</g>
					<g enable-background="new    ">
						<defs>
							<path id="SVGID_65_" enable-background="new    " d="M252.871,60.539c0.566,16.325,1.132,32.649,1.697,48.975
								c6.456,0.612,12.892,1.226,19.31,1.837c0.049-16.325,0.097-32.65,0.144-48.976C266.992,61.762,259.943,61.15,252.871,60.539z
								"/>
						</defs>
						
							<linearGradient id="SVGID_66_" gradientUnits="userSpaceOnUse" x1="79.8071" y1="110.7104" x2="79.1739" y2="86.2376" gradientTransform="matrix(-1 0 0 1 342.54 0)">
							<stop  offset="0" style="stop-color:#C0C0C0;stop-opacity:0"/>
							<stop  offset="1" style="stop-color:#C1C1C1"/>
						</linearGradient>
						<use xlink:href="#SVGID_65_"  overflow="visible" fill="url(#SVGID_66_)"/>
						<clipPath id="SVGID_67_">
							<use xlink:href="#SVGID_65_"  overflow="visible"/>
						</clipPath>
						<g clip-path="url(#SVGID_67_)" enable-background="new    ">
							
								<linearGradient id="SVGID_68_" gradientUnits="userSpaceOnUse" x1="79.8071" y1="110.7104" x2="79.1739" y2="86.2376" gradientTransform="matrix(-1 0 0 1 342.54 0)">
								<stop  offset="0" style="stop-color:#C0C0C0;stop-opacity:0"/>
								<stop  offset="1" style="stop-color:#C1C1C1"/>
							</linearGradient>
							<path fill="url(#SVGID_68_)" d="M252.871,60.539c0.566,16.325,1.132,32.649,1.697,48.975
								c6.456,0.612,12.892,1.226,19.31,1.837c0.049-16.325,0.097-32.65,0.144-48.976C266.992,61.762,259.943,61.15,252.871,60.539"
								/>
						</g>
					</g>
					<g enable-background="new    ">
						<defs>
							<path id="SVGID_69_" enable-background="new    " d="M274.021,62.375c-0.047,16.325-0.095,32.65-0.144,48.976
								c1.882-0.851,3.771-1.704,5.67-2.554c0.229-16.325,0.458-32.651,0.686-48.977C278.157,60.67,276.085,61.523,274.021,62.375z"
								/>
						</defs>
						
							<linearGradient id="SVGID_70_" gradientUnits="userSpaceOnUse" x1="64.7734" y1="110.0386" x2="65.405" y2="88.3487" gradientTransform="matrix(-1 0 0 1 342.54 0)">
							<stop  offset="0" style="stop-color:#C0C0C0;stop-opacity:0"/>
							<stop  offset="1" style="stop-color:#BFBFBF"/>
						</linearGradient>
						<use xlink:href="#SVGID_69_"  overflow="visible" fill="url(#SVGID_70_)"/>
						<clipPath id="SVGID_71_">
							<use xlink:href="#SVGID_69_"  overflow="visible"/>
						</clipPath>
						<g clip-path="url(#SVGID_71_)" enable-background="new    ">
							
								<linearGradient id="SVGID_72_" gradientUnits="userSpaceOnUse" x1="64.7734" y1="110.0386" x2="65.405" y2="88.3487" gradientTransform="matrix(-1 0 0 1 342.54 0)">
								<stop  offset="0" style="stop-color:#C0C0C0;stop-opacity:0"/>
								<stop  offset="1" style="stop-color:#BFBFBF"/>
							</linearGradient>
							<path fill="url(#SVGID_72_)" d="M274.021,62.375c-0.047,16.325-0.095,32.65-0.144,48.976c1.882-0.851,3.771-1.704,5.67-2.554
								c0.229-16.325,0.458-32.651,0.686-48.977C278.157,60.67,276.085,61.523,274.021,62.375"/>
						</g>
					</g>
					<g enable-background="new    ">
						<defs>
							<path id="SVGID_73_" enable-background="new    " d="M280.233,59.82c-0.228,16.325-0.456,32.651-0.686,48.977
								c5.362,0.706,10.704,1.413,16.026,2.122c0.742-16.325,1.482-32.649,2.222-48.975C291.96,61.234,286.108,60.527,280.233,59.82
								z"/>
						</defs>
						
							<linearGradient id="SVGID_74_" gradientUnits="userSpaceOnUse" x1="54.0854" y1="109.8521" x2="53.8747" y2="86.0451" gradientTransform="matrix(-1 0 0 1 342.54 0)">
							<stop  offset="0" style="stop-color:#C0C0C0;stop-opacity:0"/>
							<stop  offset="1" style="stop-color:#C1C1C1"/>
						</linearGradient>
						<use xlink:href="#SVGID_73_"  overflow="visible" fill="url(#SVGID_74_)"/>
						<clipPath id="SVGID_75_">
							<use xlink:href="#SVGID_73_"  overflow="visible"/>
						</clipPath>
						<g clip-path="url(#SVGID_75_)" enable-background="new    ">
							
								<linearGradient id="SVGID_76_" gradientUnits="userSpaceOnUse" x1="54.0854" y1="109.8521" x2="53.8747" y2="86.0451" gradientTransform="matrix(-1 0 0 1 342.54 0)">
								<stop  offset="0" style="stop-color:#C0C0C0;stop-opacity:0"/>
								<stop  offset="1" style="stop-color:#C1C1C1"/>
							</linearGradient>
							<path fill="url(#SVGID_76_)" d="M280.233,59.82c-0.228,16.325-0.456,32.651-0.686,48.977
								c5.362,0.706,10.704,1.413,16.026,2.122c0.742-16.325,1.482-32.649,2.222-48.975C291.96,61.234,286.108,60.527,280.233,59.82
								"/>
						</g>
					</g>
				</g>
			</g>
			<g>
				<g>
					<g>
						<defs>
							<path id="SVGID_77_" d="M246.344,64.469c0.762,16.325,1.522,32.651,2.281,48.977c1.941-1.3,3.922-2.609,5.942-3.933
								c-0.565-16.325-1.131-32.649-1.697-48.975C250.653,61.86,248.477,63.171,246.344,64.469z"/>
						</defs>
						<clipPath id="SVGID_78_">
							<use xlink:href="#SVGID_77_"  overflow="visible"/>
						</clipPath>
					</g>
					<g>
						<defs>
							<path id="SVGID_79_" d="M252.871,60.539c0.566,16.325,1.132,32.649,1.697,48.975c6.456,0.612,12.892,1.226,19.31,1.837
								c0.049-16.325,0.097-32.65,0.144-48.976C266.992,61.762,259.943,61.15,252.871,60.539z"/>
						</defs>
						<clipPath id="SVGID_80_">
							<use xlink:href="#SVGID_79_"  overflow="visible"/>
						</clipPath>
					</g>
					<g>
						<defs>
							<path id="SVGID_81_" d="M274.021,62.375c-0.047,16.325-0.095,32.65-0.144,48.976c1.882-0.851,3.771-1.704,5.67-2.554
								c0.229-16.325,0.458-32.651,0.686-48.977C278.157,60.67,276.085,61.523,274.021,62.375z"/>
						</defs>
						<clipPath id="SVGID_82_">
							<use xlink:href="#SVGID_81_"  overflow="visible"/>
						</clipPath>
					</g>
					<g>
						<defs>
							<path id="SVGID_83_" d="M280.233,59.82c-0.228,16.325-0.456,32.651-0.686,48.977c5.362,0.706,10.704,1.413,16.026,2.122
								c0.742-16.325,1.482-32.649,2.222-48.975C291.96,61.234,286.108,60.527,280.233,59.82z"/>
						</defs>
						<clipPath id="SVGID_84_">
							<use xlink:href="#SVGID_83_"  overflow="visible"/>
						</clipPath>
					</g>
				</g>
			</g>
		</g>
	</g>
	<g>
		<path fill="#8A8A8A" stroke="#FFFFFF" stroke-miterlimit="10" d="M260.058,49.711c-16.779-2.444-32.776,4.211-43.021,16.229
			l15.507,2.259C239.547,55.709,249.815,48.219,260.058,49.711z"/>
		<path fill="#8A8A8A" stroke="#FFFFFF" stroke-miterlimit="10" d="M232.544,68.199l-15.507-2.259
			c-5.604,6.575-9.493,14.748-10.83,23.929l18.307,2.666C225.851,83.354,228.71,75.032,232.544,68.199z"/>
		<path fill="#8A8A8A" stroke="#FFFFFF" stroke-miterlimit="10" d="M224.514,92.535l-18.307-2.666
			c-1.141,7.834-0.288,15.495,2.155,22.483l16.236,2.365C223.476,107.919,223.374,100.37,224.514,92.535z"/>
		<path fill="#8A8A8A" stroke="#FFFFFF" stroke-miterlimit="10" d="M281.157,75.279l15.506,2.259
			c-6.391-14.439-19.824-25.383-36.604-27.826C270.302,51.204,278.005,61.311,281.157,75.279z"/>
		<path fill="#8A8A8A" stroke="#FFFFFF" stroke-miterlimit="10" d="M281.909,100.896l18.307,2.666
			c1.339-9.181-0.056-18.124-3.553-26.024l-15.506-2.259C282.879,82.921,283.248,91.715,281.909,100.896z"/>
		<path fill="#8A8A8A" stroke="#FFFFFF" stroke-miterlimit="10" d="M224.599,114.717l-16.236-2.365
			c5.654,16.172,19.878,28.728,38.002,31.367C235.299,142.108,227.198,130.444,224.599,114.717z"/>
		<path fill="#8A8A8A" stroke="#FFFFFF" stroke-miterlimit="10" d="M246.365,143.719c18.127,2.641,35.34-5.336,45.372-19.223
			l-16.236-2.364C268.524,136.463,257.431,145.332,246.365,143.719z"/>
		<path fill="#8A8A8A" stroke="#FFFFFF" stroke-miterlimit="10" d="M281.909,100.896c-1.141,7.834-3.394,15.041-6.408,21.236
			l16.236,2.364c4.336-6.002,7.338-13.1,8.479-20.935L281.909,100.896z"/>
		<path fill="#8A8A8A" stroke="#FFFFFF" stroke-miterlimit="10" d="M256.849,71.739l-24.305-3.54
			c-3.834,6.833-6.693,15.155-8.03,24.336l28.697,4.181L256.849,71.739z"/>
		<path fill="#8A8A8A" stroke="#FFFFFF" stroke-miterlimit="10" d="M256.849,71.739l-3.638,24.977l28.697,4.181
			c1.339-9.181,0.971-17.975-0.752-25.617L256.849,71.739z"/>
		<path fill="#8A8A8A" stroke="#FFFFFF" stroke-miterlimit="10" d="M224.514,92.535c-1.141,7.835-1.038,15.385,0.085,22.183
			l25.45,3.708l3.162-21.71L224.514,92.535z"/>
		<path fill="#8A8A8A" stroke="#FFFFFF" stroke-miterlimit="10" d="M250.049,118.425l25.451,3.707
			c3.015-6.195,5.268-13.402,6.408-21.236l-28.697-4.181L250.049,118.425z"/>
		<path fill="#8A8A8A" stroke="#FFFFFF" stroke-miterlimit="10" d="M281.157,75.279c-3.151-13.968-10.854-24.075-21.099-25.567
			l-3.209,22.027L281.157,75.279z"/>
		<path fill="#8A8A8A" stroke="#FFFFFF" stroke-miterlimit="10" d="M224.599,114.717c2.599,15.727,10.7,27.391,21.766,29.002
			l3.685-25.294L224.599,114.717z"/>
		<path fill="#8A8A8A" stroke="#FFFFFF" stroke-miterlimit="10" d="M275.5,122.132l-25.451-3.707l-3.685,25.294
			C257.431,145.332,268.524,136.463,275.5,122.132z"/>
		<path fill="#8A8A8A" stroke="#FFFFFF" stroke-miterlimit="10" d="M232.544,68.199l24.305,3.54l3.209-22.027
			C249.815,48.219,239.547,55.709,232.544,68.199z"/>
	</g>
	<g>
		<path fill="#8A8A8A" stroke="#FFFFFF" stroke-miterlimit="10" d="M160.911,90.802c0,18.995-19.213,39.566-19.213,39.566
			s-19.215-20.571-19.215-39.566c0-12.896,8.603-23.353,19.215-23.353C152.307,67.45,160.911,77.907,160.911,90.802z"/>
		<path fill="#FFFFFF" stroke="#8A8A8A" stroke-miterlimit="10" d="M151.777,89.746c0,6.766-4.514,12.252-10.079,12.252
			c-5.567,0-10.08-5.486-10.08-12.252c0-6.77,4.512-12.254,10.08-12.254C147.263,77.492,151.777,82.976,151.777,89.746z"/>
	</g>
	<g>
		<path fill="#E4E4E4" stroke="#FFFFFF" stroke-width="1.2559" stroke-miterlimit="10" d="M129.841,100.326
			c0,23.744-24.017,49.46-24.017,49.46s-24.017-25.716-24.017-49.46c0-16.119,10.752-29.192,24.017-29.192
			C119.086,71.133,129.841,84.207,129.841,100.326z"/>
		<path fill="#FFFFFF" stroke="#E4E4E4" stroke-width="1.2559" stroke-miterlimit="10" d="M118.424,99.005
			c0,8.459-5.641,15.314-12.6,15.314c-6.958,0-12.598-6.855-12.598-15.314c0-8.462,5.641-15.315,12.598-15.315
			C112.783,83.69,118.424,90.543,118.424,99.005z"/>
	</g>
</g>
</svg>
