<svg id="Livello_1" data-name="Livello 1" xmlns="http://www.w3.org/2000/svg" viewBox="0 0 800 200"><defs><style>.cls-1{fill:#fff;}.cls-2{fill:#1d1d1b;}.cls-3{fill:#c4114d;}.cls-4{fill:none;}.cls-5{fill:#ba1640;}</style></defs><rect class="cls-1" x="39.14" y="36.94" width="109.52" height="112.79"/><path class="cls-2" d="M223.32,131.13h9.36L218,174.21h-8.58L195,131.13h9.66l9.23,32.64H214Z"/><path class="cls-2" d="M246.36,138.51H238v-7.8h8.4Zm0,3.78v31.92H238V142.29Z"/><path class="cls-2" d="M281.82,164.85c-2.22,7.68-8.58,10.19-14,10.19-9,0-15.9-4.31-15.9-17.45,0-3.84,1.33-16.14,15.3-16.14,6.3,0,15,3,15,17.58v1.5H260.29c.23,2.4.71,7.8,7.49,7.8,2.34,0,4.74-1.2,5.4-3.48Zm-8.28-9.78c-.48-5.16-3.78-6.72-6.48-6.72-4,0-6.06,2.52-6.54,6.72Z"/><path class="cls-2" d="M319.92,174.21h-8.64l-5-23.28h-.12l-5,23.28h-8.64l-9-31.92h8.94l5,22.92h.12l4.5-22.92h8.46l4.8,22.92h.12l5-22.92h8.64Z"/><path class="cls-2" d="M359.76,164.85c-2.22,7.68-8.58,10.19-14,10.19-9,0-15.89-4.31-15.89-17.45,0-3.84,1.31-16.14,15.29-16.14,6.3,0,15,3,15,17.58v1.5h-21.9c.24,2.4.73,7.8,7.5,7.8,2.34,0,4.74-1.2,5.4-3.48Zm-8.28-9.78c-.48-5.16-3.77-6.72-6.48-6.72-4,0-6.05,2.52-6.54,6.72Z"/><path class="cls-2" d="M365.64,142.29h8v5.52h.12c1.74-3.24,3.66-6.36,8.76-6.36a14.71,14.71,0,0,1,1.62.12v8.52a15.69,15.69,0,0,0-2.4-.12c-6.54,0-7.74,4.08-7.74,7.62v16.62h-8.4Z"/><path class="cls-3" d="M150.36,20H20V150.36a23.89,23.89,0,0,0,23.89,23.89H150.36a23.89,23.89,0,0,0,23.88-23.89V43.89A23.89,23.89,0,0,0,150.36,20ZM134.85,97.54c0,24.43-12.94,39.94-40.72,39.94H58.65V57.82H98.92c10.71,0,18.63,3.2,24.26,8.33q1,.94,2,2l0,0C132.05,75.72,134.85,86.56,134.85,97.54Z"/><polygon class="cls-4" points="58.65 137.19 58.94 137.48 58.65 137.48 58.65 137.19"/><path class="cls-3" d="M89.11,100.81a6.8,6.8,0,0,0,6.94,6.94,5.58,5.58,0,0,0,5.25-3.1h13.41c-2.43,8.76-11.32,11.66-19.54,11.66-11.31,0-20.07-6.47-20.07-18.32,0-11.59,8.69-19,20-19,13.06,0,21,9,20.74,21.82Zm12.73-7.14a6.34,6.34,0,0,0-6.19-6.13c-4.18,0-6.54,2.36-6.54,6.13Z"/><path class="cls-5" d="M174.24,117.22v33.14a23.89,23.89,0,0,1-23.88,23.89H95.71L58.94,137.48H94.13c27.78,0,40.72-15.51,40.72-39.94,0-11-2.8-21.82-9.67-29.39Z"/></svg>