<?xml version="1.0" encoding="iso-8859-1"?>
<!-- Generator: Adobe Illustrator 15.1.0, SVG Export Plug-In . SVG Version: 6.00 Build 0)  -->
<!DOCTYPE svg PUBLIC "-//W3C//DTD SVG 1.1//EN" "http://www.w3.org/Graphics/SVG/1.1/DTD/svg11.dtd">
<svg version="1.1" xmlns="http://www.w3.org/2000/svg" xmlns:xlink="http://www.w3.org/1999/xlink" x="0px" y="0px" width="250px"
	 height="250px" viewBox="0 0 250 250" style="enable-background:new 0 0 250 250;" xml:space="preserve">
<g id="Livello_2" style="display:none;">
	<rect x="-156.849" y="-1033.704" style="display:inline;fill:#222221;" width="579.058" height="1344.134"/>
</g>
<g id="Livello_1">
	<g>
		<g>
			
				<ellipse style="fill:#F5D532;stroke:#FFFFFF;stroke-width:7.2154;stroke-miterlimit:10;" cx="124.379" cy="193.66" rx="30.235" ry="1.184"/>
			
				<ellipse style="fill:#F5D532;stroke:#FFFFFF;stroke-width:7.2154;stroke-miterlimit:10;" cx="124.379" cy="207.154" rx="30.235" ry="1.184"/>
			
				<ellipse style="fill:#F5D532;stroke:#FFFFFF;stroke-width:7.2154;stroke-miterlimit:10;" cx="124.379" cy="220.473" rx="30.235" ry="1.184"/>
			<path style="fill:#F5D532;stroke:#FFFFFF;stroke-width:7.2154;stroke-miterlimit:10;" d="M145.453,233.996
				c0,0.654-9.438,4.057-21.075,4.057c-11.639,0-21.073-3.402-21.073-4.057s9.435-1.184,21.073-1.184
				C136.016,232.813,145.453,233.342,145.453,233.996z"/>
		</g>
		<g>
			<path style="fill:#FFFFFF;" d="M124.378,50.717c-33.06,0-59.86,25.971-59.86,58.006c0,14.018,9.479,45.221,18.02,55.246
				c10.977,12.891,1.525,21.109,41.841,21.109c39.397,0,30.553-8.176,41.534-21.012c8.588-10.041,18.326-41.283,18.326-55.344
				C184.238,76.688,157.438,50.717,124.378,50.717z M83.87,121.305c-5-46.75,29.25-51.75,29.25-51.75
				C88.37,84.805,83.87,121.305,83.87,121.305z"/>
			
				<path style="display:none;fill:none;stroke:#F9EB50;stroke-width:6;stroke-linecap:round;stroke-linejoin:round;stroke-miterlimit:10;" d="
				M110.635,72.025c0,0-25.248,9.086-25.654,45.871"/>
		</g>
		<g>
			<g>
				
					<line style="fill:none;stroke:#FFFFFF;stroke-width:7.2154;stroke-linecap:round;stroke-miterlimit:10;" x1="229.248" y1="108.576" x2="203.932" y2="108.576"/>
				
					<line style="fill:none;stroke:#FFFFFF;stroke-width:7.2154;stroke-linecap:round;stroke-miterlimit:10;" x1="197.467" y1="39.215" x2="179.564" y2="56.563"/>
			</g>
			<g>
				
					<line style="fill:none;stroke:#FFFFFF;stroke-width:7.2154;stroke-linecap:round;stroke-miterlimit:10;" x1="20.751" y1="108.576" x2="46.069" y2="108.576"/>
				
					<line style="fill:none;stroke:#FFFFFF;stroke-width:7.2154;stroke-linecap:round;stroke-miterlimit:10;" x1="52.534" y1="39.215" x2="70.435" y2="56.563"/>
			</g>
			
				<line style="fill:none;stroke:#FFFFFF;stroke-width:7.2154;stroke-linecap:round;stroke-miterlimit:10;" x1="124.38" y1="11.947" x2="124.38" y2="36.479"/>
		</g>
	</g>
</g>
</svg>
