<?xml version="1.0" encoding="iso-8859-1"?>
<!-- Generator: Adobe Illustrator 15.1.0, SVG Export Plug-In . SVG Version: 6.00 Build 0)  -->
<!DOCTYPE svg PUBLIC "-//W3C//DTD SVG 1.1//EN" "http://www.w3.org/Graphics/SVG/1.1/DTD/svg11.dtd">
<svg version="1.1" xmlns="http://www.w3.org/2000/svg" xmlns:xlink="http://www.w3.org/1999/xlink" x="0px" y="0px" width="250px"
	 height="250px" viewBox="0 0 250 250" style="enable-background:new 0 0 250 250;" xml:space="preserve">
<g id="Livello_2" style="display:none;">
	<rect x="-156.849" y="-1033.704" style="display:inline;fill:#222221;" width="579.058" height="1344.134"/>
</g>
<g id="Livello_1">
	<g>
		
			<path style="fill:none;stroke:#FFFFFF;stroke-width:10.8573;stroke-linecap:round;stroke-linejoin:round;stroke-miterlimit:10;" d="
			M214.475,78.372c0,0-6.823-10.521-7.482-14.691c-1.718-10.877,8.266-18.44,11.635-22.756c-9.693,2.427-24.165,9.742-28.879,15.53
			c-5.69,7.165-7.446,8.248-0.831,16.206c38.999,53.259-13.06,120.747-15.062,123.304c17.696,19.078,38.451,31.036,38.451,31.036
			c-9.907-17.466,6.175-46.876,6.175-46.876C263.299,104.98,214.475,78.372,214.475,78.372z"/>
		<path style="fill:none;stroke:#FFFFFF;stroke-width:4.5239;stroke-linecap:round;stroke-miterlimit:10;" d="M205.634,117.845
			c0,0,7.319,7.155-7.438,64.101"/>
		
			<path style="fill:none;stroke:#FFFFFF;stroke-width:10.8573;stroke-linecap:round;stroke-linejoin:round;stroke-miterlimit:10;" d="
			M183.808,72.661c-1.663-2.272-3.475-4.523-5.48-6.736c0,0,2.155-4.364,6.313-9.47c4.714-5.788,12.014-12.514,21.707-14.939
			c3.742-0.937,7.834-1.244,12.28-0.591l-6.812-23.717c0,0-15.315-12.178-43.133,18.589l-13.06,21.154
			c0,0-78.897-25.641-103.87,109.611c0,0-11.354,51.279-39.165,59.611c0,0,114.097,33.973,156.095-30.127
			c0,0,0.025-0.032,0.065-0.082C170.75,193.408,222.809,125.92,183.808,72.661z"/>
		
			<path style="fill:none;stroke:#FFFFFF;stroke-width:10.8573;stroke-linecap:round;stroke-linejoin:round;stroke-miterlimit:10;" d="
			M152.361,87.076c0,0-37.12,1.505-46.688,74.355c0,0-5.968,32.692-18.593,36.538"/>
	</g>
</g>
</svg>
