<?xml version="1.0" encoding="iso-8859-1"?>
<!-- Generator: Adobe Illustrator 15.1.0, SVG Export Plug-In . SVG Version: 6.00 Build 0)  -->
<!DOCTYPE svg PUBLIC "-//W3C//DTD SVG 1.1//EN" "http://www.w3.org/Graphics/SVG/1.1/DTD/svg11.dtd">
<svg version="1.1" xmlns="http://www.w3.org/2000/svg" xmlns:xlink="http://www.w3.org/1999/xlink" x="0px" y="0px" width="250px"
	 height="250px" viewBox="0 0 250 250" style="enable-background:new 0 0 250 250;" xml:space="preserve">
<g id="Livello_2" style="display:none;">
	<rect x="-156.849" y="-1033.704" style="display:inline;fill:#222221;" width="579.058" height="1344.134"/>
</g>
<g id="Livello_1">
	<g>
		<path style="fill:none;stroke:#FFFFFF;stroke-width:10.327;stroke-miterlimit:10;" d="M204.88,216.916
			c18.232-19.523,29.396-45.735,29.396-74.556c0-60.353-48.924-109.276-109.276-109.276S15.724,82.008,15.724,142.36
			c0,28.82,11.166,55.032,29.396,74.556H204.88z"/>
		<g>
			<g>
				<g>
					
						<line style="fill:none;stroke:#FFFFFF;stroke-width:6.8847;stroke-miterlimit:10;" x1="185.853" y1="80.066" x2="167.599" y2="98.32"/>
				</g>
				<g>
					
						<line style="fill:none;stroke:#FFFFFF;stroke-width:6.8847;stroke-miterlimit:10;" x1="211.146" y1="140.828" x2="185.331" y2="140.828"/>
				</g>
				<g>
					
						<line style="fill:none;stroke:#FFFFFF;stroke-width:6.8847;stroke-miterlimit:10;" x1="186.067" y1="201.68" x2="167.813" y2="183.427"/>
				</g>
				<g>
					
						<line style="fill:none;stroke:#FFFFFF;stroke-width:6.8847;stroke-miterlimit:10;" x1="64.454" y1="201.896" x2="82.707" y2="183.641"/>
				</g>
				<g>
					
						<line style="fill:none;stroke:#FFFFFF;stroke-width:6.8847;stroke-miterlimit:10;" x1="39.159" y1="141.134" x2="64.974" y2="141.133"/>
				</g>
				<g>
					
						<line style="fill:none;stroke:#FFFFFF;stroke-width:6.8847;stroke-miterlimit:10;" x1="64.237" y1="80.281" x2="82.493" y2="98.535"/>
				</g>
				<g>
					
						<line style="fill:none;stroke:#FFFFFF;stroke-width:6.8847;stroke-miterlimit:10;" x1="124.999" y1="54.986" x2="125.001" y2="80.802"/>
				</g>
			</g>
			<path style="fill:none;stroke:#FFFFFF;stroke-width:7.5612;stroke-miterlimit:10;" d="M183.835,204.057
				c16.904-15.795,27.709-38.052,27.709-63.011c0-25.079-10.666-48.261-27.709-64.067"/>
		</g>
		<g>
			<circle style="fill:none;stroke:#FFFFFF;stroke-width:4.3029;stroke-miterlimit:10;" cx="124.999" cy="141.134" r="9.381"/>
			<path style="fill:#FFFFFF;" d="M144.708,85.728l-24.096,46.024c0,0,9.18-2.135,13.768,5.325L144.708,85.728z"/>
		</g>
	</g>
</g>
</svg>
