<?xml version="1.0" encoding="iso-8859-1"?>
<!-- Generator: Adobe Illustrator 15.1.0, SVG Export Plug-In . SVG Version: 6.00 Build 0)  -->
<!DOCTYPE svg PUBLIC "-//W3C//DTD SVG 1.1//EN" "http://www.w3.org/Graphics/SVG/1.1/DTD/svg11.dtd">
<svg version="1.1" xmlns="http://www.w3.org/2000/svg" xmlns:xlink="http://www.w3.org/1999/xlink" x="0px" y="0px" width="250px"
	 height="250px" viewBox="0 0 250 250" style="enable-background:new 0 0 250 250;" xml:space="preserve">
<g id="Livello_2" style="display:none;">
	
		<text transform="matrix(1 0 0 1 -33.6934 -1146.4692)" style="display:inline;fill:#222221; font-family:'MyriadPro-Regular'; font-size:60;">PURPLE A400</text>
	<rect x="-131.182" y="-905.037" style="display:inline;fill:#9E9E9E;" width="579.058" height="1344.134"/>
</g>
<g id="Livello_1">
	<path style="fill:none;stroke:#FFFFFF;stroke-width:6;stroke-miterlimit:10;" d="M239,53.857c0,0-17.094,97.725-35.439,124.34
		c-29.866,43.33-78.561,60.8-78.561,60.8s-53.307-16.803-76.59-60.35C33.053,149.925,11,53.857,11,53.857s59.9,0,114-42.86
		C179.9,53.857,239,53.857,239,53.857z"/>
	<path style="fill:#FFFFFF;" d="M99.969,94.527v-10.53c0-13.819,11.21-25.029,25.03-25.029c13.82,0,25.03,11.21,25.03,25.029v10.53
		h10.66v-10.53c0-19.71-15.98-35.689-35.69-35.689c-19.71,0-35.69,15.979-35.69,35.689v10.53H99.969z"/>
	<path style="fill:#FFFFFF;" d="M167.027,100.527H82.973c-6.627,0-12,5.373-12,12v65.334c0,6.627,5.373,12,12,12h84.055
		c6.627,0,12-5.373,12-12v-65.334C179.027,105.9,173.654,100.527,167.027,100.527z M140.189,171.697h-30.38l5.94-34.66
		c-3.61-2.77-5.94-7.13-5.94-12.04c0-8.39,6.8-15.189,15.19-15.189s15.19,6.8,15.19,15.189c0,4.91-2.33,9.271-5.94,12.04
		L140.189,171.697z"/>
</g>
</svg>
