<?xml version="1.0" encoding="iso-8859-1"?>
<!-- Generator: Adobe Illustrator 15.1.0, SVG Export Plug-In . SVG Version: 6.00 Build 0)  -->
<!DOCTYPE svg PUBLIC "-//W3C//DTD SVG 1.1//EN" "http://www.w3.org/Graphics/SVG/1.1/DTD/svg11.dtd">
<svg version="1.1" xmlns="http://www.w3.org/2000/svg" xmlns:xlink="http://www.w3.org/1999/xlink" x="0px" y="0px" width="250px"
	 height="250px" viewBox="0 0 250 250" style="enable-background:new 0 0 250 250;" xml:space="preserve">
<g id="Livello_2" style="display:none;">
	<rect x="-156.849" y="-1033.704" style="display:inline;fill:#222221;" width="579.058" height="1344.134"/>
</g>
<g id="Livello_1">
	<g>
		<g>
			<g>
				<path style="fill:#FFFFFF;" d="M63.847,172.609c-3.658-3.443-6.823-7.254-9.537-11.43c-0.284-0.463-5.436-11.338-7.221-9.715
					c0.814,2.383,0.854,4.682,0.092,6.949c-2.224,0.475-6.642-46.303-8.55-51.568c-0.854-2.35-1.588-4.369-2.277-6.135
					c-7.113,12.896-11.135,27.545-11.135,43.078c0,29.656,14.662,56.094,37.545,73.273c-2.947-11.984-3.163-29.996-2.775-33.313
					C60.319,179.715,61.612,175.996,63.847,172.609z"/>
				<path style="fill:#FFFFFF;" d="M195.172,210.434c5.327-4.953,10.064-10.463,14.102-16.434c-3.275,3.975-5.85,6.945-5.85,6.945
					S199.572,205.475,195.172,210.434z"/>
			</g>
			<g>
				<g>
					<path style="fill:#FFFFFF;" d="M212.198,98.184c-0.236-0.398-0.486-0.787-0.729-1.182l-1.229-1.119
						C210.889,96.637,211.547,97.408,212.198,98.184z"/>
					<path style="fill:#FFFFFF;" d="M223.052,126.35c-10.363-1.191-21.997,8.613-28.638-0.406
						c-8.236-11.158,10.566-24.938,9.324-35.986l-10.105-9.205l-51.899,5.793l32.436,57.146l-11.501-2.488L113.43,86.836
						c0,0-45.827,1.195-45.827-10.83c0-12.027,46.506-11.277,46.506-11.277l13.198-14.654c-0.768-0.016-1.533-0.037-2.305-0.037
						c-29.512,0-56.025,12.033-74.292,31.162c6.56,0.201,13.839-0.115,19.489,2.719c4.854,2.455,15.342,30.979,12.675,31.359
						c3.069-0.439,4.055-16.223,7.117-18.865c6.455-5.559,16.267-1.764,14.208,6.691c-1.815,7.475-2.688,15.469-10.666,17.781
						c-4.307,1.609-17.141,5.662-19.629,10.162c-3.329,6.021,6.83,10.654,7.189,6.746c0.075-0.719-10.895-5.549-2.526-7.744
						c3.994,0.816,6.942,10.689,8.13,8.92c1.394-2.113-1.122-5.871,0.259-8.168c1.241-2.066,4.458,2.107,4.874-1.258
						c0.237-2.027-6.703-2.133-7.167-1.777c8.956-5.059,29.259-4.238,14.45,7.645c-2.521,5.16-8.398,9.566-13.184,12.734
						c-4.065,9.502,2.209,6.73,1.935,13.947c-0.124,3.158-14.152-8.342-18.694-8.342c-3.573,2.299-2.867,9.279-1.493,12.445
						c3.295,7.66,13.857,4.676,20.547,6.387c16.22,4.125,18.406,12.121,5.44,23.346c-5.615,4.85-12.276,7.811-15.804,14.645
						c-1.309,2.566-2.108,9.504-3.911,13.773c14.936,8.373,32.394,13.189,51.053,13.189c13.713,0,26.777-2.6,38.669-7.301
						c2.833-17.5,18.824-14.875,18.824-37.797c0-33.16,10.953-39.414,42.256-46.385c0.019-0.754,0.03-1.506,0.03-2.264
						C224.781,137.828,224.183,132,223.052,126.35z"/>
					<path style="fill:#FFFFFF;" d="M149.682,52.938l-7.948,12.529l43.48,3.568C174.782,61.605,162.749,56.061,149.682,52.938z"/>
				</g>
				<g>
					<path style="fill:none;stroke:#FFFFFF;stroke-width:2.5765;stroke-miterlimit:1;" d="M151.68,53.43l-6.568,10.355l36.859,3.025
						C172.865,60.852,162.653,56.283,151.68,53.43z"/>
					<path style="fill:none;stroke:#FFFFFF;stroke-width:2.5765;stroke-miterlimit:1;" d="M213.342,100.166l-1.428-0.119
						l-18.942-17.258l-48.079,5.367l33.127,58.365l-16.377-3.543l-0.422-0.465l-48.643-53.709c-0.587,0.008-1.441,0.016-2.511,0.016
						c-5.503,0-16.133-0.219-25.501-1.691C71.838,85.127,65.65,81.488,65.65,76.006c0-11.518,29.365-13.238,46.869-13.238
						c0.275,0,0.519,0,0.727,0.002l11.464-12.729c-54.98,0.148-99.491,42.045-99.491,93.748c0,51.77,44.668,93.746,99.783,93.746
						c55.116,0,99.779-41.977,99.779-93.746C224.781,128.035,220.643,113.195,213.342,100.166z"/>
				</g>
			</g>
		</g>
		<path style="fill:#FFFFFF;" d="M214.58,56.709l-0.659,0.051l-19.313,16.057l-58.066-4.766l35.261-55.586l-7.624,1.154
			L115.425,67.75l-1.364-0.021c-0.014,0-0.566-0.008-1.541-0.008c-26.238,0-41.917,4.213-41.917,8.285
			c0,1.805,3.858,4.52,14.733,6.23c9.035,1.422,19.373,1.633,24.73,1.633c2.035,0,3.265-0.031,3.285-0.031l1.377-0.035
			l49.516,54.672l4.007,0.867l-31.373-55.273l57.771-6.449l19.354,17.633l0.609,0.049l-4.829-19.711L214.58,56.709z"/>
	</g>
</g>
</svg>
