<?xml version="1.0" encoding="iso-8859-1"?>
<!-- Generator: Adobe Illustrator 15.1.0, SVG Export Plug-In . SVG Version: 6.00 Build 0)  -->
<!DOCTYPE svg PUBLIC "-//W3C//DTD SVG 1.1//EN" "http://www.w3.org/Graphics/SVG/1.1/DTD/svg11.dtd">
<svg version="1.1" xmlns="http://www.w3.org/2000/svg" xmlns:xlink="http://www.w3.org/1999/xlink" x="0px" y="0px" width="250px"
	 height="250px" viewBox="0 0 250 250" style="enable-background:new 0 0 250 250;" xml:space="preserve">
<g id="Livello_2" style="display:none;">
	<rect x="-156.849" y="-1033.704" style="display:inline;fill:#222221;" width="579.058" height="1344.134"/>
</g>
<g id="Livello_1">
	<g>
		<path style="fill:#FFFFFF;stroke:#FFFFFF;stroke-width:2.7371;stroke-miterlimit:10;" d="M219.433,16.197
			c0-3.022-2.453-5.473-5.476-5.473H36.042c-3.024,0-5.473,2.45-5.473,5.473v18.25c0,3.021,2.448,5.473,5.473,5.473h63.866
			l7.759-6.159h33.752l8.676,6.159h63.862c3.022,0,5.476-2.452,5.476-5.473V16.197z"/>
		<g>
			<path style="fill:#FFFFFF;" d="M37.514,144.378l6.739,89.488c0,2.988,2.445,5.409,5.462,5.409h65.132l2.743-17.105h8.209h8.214
				l3.418,17.105h62.854c3.017,0,5.46-2.421,5.46-5.409l6.741-89.488H37.514z"/>
			<path style="fill:#FFFFFF;" d="M213.879,125.901l5.554-73.73c0-2.986-2.447-5.407-5.462-5.407H36.027
				c-3.015,0-5.458,2.421-5.458,5.407l5.553,73.73H213.879z M129.282,114.802l-14.191-0.088c0,0-6.138-0.298-6.694-6.369
				c-0.544-5.937,6.368-7.035,6.368-7.035l14.538-0.156L129.282,114.802z M144.918,113.572h-7.445v7.233l-7.052-13.999l7.052-13.926
				v7c0,0,12.528,0,14.69,0s5.401-3.726,5.401-3.726C151.132,115.327,144.918,113.572,144.918,113.572z M154.823,95.939
				c-4.849,3.431-9.268-2.005-9.268-2.005l-7.416-12.5l11.835-6.831l7.031,12.338C157.006,86.941,159.818,92.412,154.823,95.939z
				 M140.846,61.053l3.689,6.46l6.281-3.603l-8.611,13.078L126.6,77.791l6.069-3.477c0,0-6.291-11.047-7.322-12.716
				c-1.02-1.682-5.916-2.839-5.916-2.839C140.051,56.037,140.846,61.053,140.846,61.053z M111.653,63.522
				c0,0,3.33-5.138,8.892-2.574c5.389,2.497,2.87,9.011,2.87,9.011l-7.15,12.664l-11.804-6.85L111.653,63.522z M110.452,81.671
				l8.512,13.123l-6.06-3.518c0,0-6.438,10.547-7.357,12.691c-0.909,2.168,0.53,6.558,0.53,6.558
				C92.491,95.557,97.34,90.847,97.34,90.847l3.713-6.438l-6.252-3.63L110.452,81.671z"/>
		</g>
		<g>
			<path style="fill:none;stroke:#FFFFFF;stroke-width:12.3172;stroke-miterlimit:10;" d="M224.512,22.252
				c2.951,0,5.344,2.407,5.344,5.375v102.138c0,2.968-2.393,5.375-5.344,5.375H25.486c-2.951,0-5.342-2.407-5.342-5.375V27.627
				c0-2.968,2.391-5.375,5.342-5.375"/>
		</g>
	</g>
</g>
</svg>
