<?xml version="1.0" encoding="iso-8859-1"?>
<!-- Generator: Adobe Illustrator 15.1.0, SVG Export Plug-In . SVG Version: 6.00 Build 0)  -->
<!DOCTYPE svg PUBLIC "-//W3C//DTD SVG 1.1//EN" "http://www.w3.org/Graphics/SVG/1.1/DTD/svg11.dtd">
<svg version="1.1" xmlns="http://www.w3.org/2000/svg" xmlns:xlink="http://www.w3.org/1999/xlink" x="0px" y="0px" width="250px"
	 height="250px" viewBox="0 0 250 250" style="enable-background:new 0 0 250 250;" xml:space="preserve">
<g id="Livello_2" style="display:none;">
	<rect x="-156.849" y="-1033.704" style="display:inline;fill:#222221;" width="579.058" height="1344.134"/>
</g>
<g id="Livello_1">
	<g>
		<path style="fill:#FFFFFF;" d="M240.447,131.612c0.295-39.289-4.984-71.28-20.203-71.453
			c-15.217-0.172-34.609,31.539-34.904,70.83c-0.295,39.289,18.623,71.279,33.84,71.453
			C234.396,202.613,240.152,170.901,240.447,131.612z"/>
		<path style="fill:#FFFFFF;" d="M169.027,38.226c-7.704-8.065-32.584,0.714-46.834,6.714c-2.746-2.904-6.337-4.683-10.273-4.683
			c-3.938,0-7.527,1.777-10.275,4.683c-14.249-6-39.129-14.779-46.834-6.714c-4.814,5.039-4.814,26.053,0,31.092
			c6.923,7.246,27.713,0.893,42.197-4.824c1.955,7.675,7.898,13.272,14.912,13.272c7.013,0,12.955-5.599,14.91-13.273
			c14.484,5.717,35.275,12.071,42.197,4.825C173.842,64.278,173.842,43.265,169.027,38.226z M123.404,63.106
			c-1.416,6.342-6.023,11.009-11.484,11.009c-5.462,0-10.069-4.667-11.486-11.008c0.084-0.035,0.164-0.068,0.248-0.104
			c-0.297-1.27-0.466-2.606-0.466-3.993c0-5.195,2.247-9.734,5.605-12.265c-0.189-0.084-0.38-0.168-0.576-0.255
			c1.907-1.631,4.204-2.584,6.675-2.584c2.47,0,4.768,0.953,6.674,2.584c-0.196,0.087-0.387,0.171-0.576,0.255
			c3.357,2.53,5.604,7.07,5.604,12.265c0,1.387-0.169,2.724-0.466,3.992C123.24,63.037,123.32,63.071,123.404,63.106z"/>
		<path style="fill:#FFFFFF;" d="M134.658,105.946c-1.883-0.051-5.449-31.56-5.449-31.56s-1.736-1.786-4.189-3.95
			c0.883-2.256,1.402-4.772,1.422-7.44c0.052-6.951-3.195-12.979-7.939-15.881c3.09,2.591,5.12,6.951,5.12,11.896
			c0,7.949-5.239,14.391-11.702,14.391c-6.465,0-11.704-6.441-11.704-14.391c0-4.208,1.479-7.982,3.821-10.613
			c-3.686,3.139-6.122,8.345-6.166,14.275c-0.021,2.861,0.527,5.562,1.496,7.961c-2.625,2.344-4.514,4.307-4.514,4.307
			s-3.65,31.634-5.35,31.747c-33.918,2.286-57.711,8.036-70.621,24.613c-13.211,16.965-8.541,83.72-8.541,83.72l37.504-0.613
			c0,0-3.199-36.191,5.984-47.277c29.145-35.181,158.879-11.028,158.879-11.028l0.328-43.895
			C213.037,112.207,176.877,107.038,134.658,105.946z"/>
	</g>
</g>
</svg>
